<?xml version="1.0" standalone="no"?>
<!DOCTYPE svg PUBLIC "-//W3C//DTD SVG 20010904//EN"
 "http://www.w3.org/TR/2001/REC-SVG-20010904/DTD/svg10.dtd">
<svg version="1.0" xmlns="http://www.w3.org/2000/svg"
 width="512.000000pt" height="512.000000pt" viewBox="0 0 512.000000 512.000000"
 preserveAspectRatio="xMidYMid meet">
<metadata>
Created by potrace 1.14, written by Peter Selinger 2001-2017
</metadata>
<g transform="translate(0.000000,512.000000) scale(0.100000,-0.100000)"
fill="#000000" stroke="none">
<path d="M0 2560 l0 -2560 2560 0 2560 0 0 2560 0 2560 -2560 0 -2560 0 0
-2560z m563 778 c-105 -109 -184 -275 -219 -463 -25 -134 -25 -438 0 -570 24
-128 73 -275 128 -385 35 -69 41 -87 22 -65 -336 400 -410 924 -180 1268 30
45 74 101 98 123 41 40 172 134 186 134 3 0 -12 -19 -35 -42z m4057 -18 c62
-42 140 -122 189 -193 152 -222 173 -547 58 -872 -39 -109 -149 -294 -228
-385 -29 -33 -28 -30 14 55 84 168 129 342 145 555 25 352 -59 667 -227 843
-60 64 -49 63 49 -3z m-3899 -176 c-118 -134 -171 -313 -171 -578 0 -212 35
-376 111 -529 37 -72 24 -66 -34 16 -89 125 -161 298 -182 432 -37 241 23 450
172 598 42 42 128 107 140 107 3 0 -14 -21 -36 -46z m3724 -7 c83 -62 161
-166 199 -264 91 -235 34 -564 -139 -809 -55 -77 -84 -102 -50 -43 30 53 89
229 106 319 18 97 15 378 -5 471 -30 139 -85 256 -159 336 -22 24 -36 43 -31
43 5 0 40 -24 79 -53z m-3115 -462 l0 -375 195 0 195 0 0 -120 0 -120 -320 0
-320 0 0 495 0 495 125 0 125 0 0 -375z m1140 270 l0 -105 -212 -2 -213 -3 0
-75 0 -75 198 -3 197 -2 0 -100 0 -100 -200 0 -201 0 3 -97 3 -98 218 -3 217
-2 0 -110 0 -110 -342 2 -343 3 -3 493 -2 492 340 0 340 0 0 -105z m778 -2 l3
-103 -216 0 -215 0 0 -80 0 -80 198 0 197 0 -3 -100 -3 -100 -195 0 -194 0 0
-100 0 -100 220 0 221 0 -3 -107 -3 -108 -342 -3 -343 -2 0 495 0 495 338 -2
337 -3 3 -102z m700 83 c91 -39 149 -152 140 -270 -9 -110 -66 -203 -146 -238
l-44 -20 34 -23 c45 -30 78 -81 126 -190 80 -185 92 -213 92 -219 0 -4 -64 -5
-141 -4 l-141 3 -57 130 c-111 253 -124 272 -182 263 l-24 -3 -2 -195 -2 -195
-123 0 -123 0 -3 480 c-1 264 0 486 3 493 4 11 57 13 278 10 236 -3 278 -6
315 -22z m-3064 -33 c-49 -64 -80 -128 -106 -220 -20 -67 -23 -101 -23 -238 0
-176 18 -267 76 -390 15 -33 26 -61 25 -63 -7 -7 -78 99 -111 166 -55 112 -78
210 -78 332 -1 191 63 319 213 433 19 15 36 27 37 27 2 0 -13 -21 -33 -47z
m3416 -30 c67 -62 99 -110 132 -199 17 -48 21 -81 22 -179 0 -179 -42 -309
-151 -462 -48 -67 -68 -84 -35 -30 27 44 70 167 88 250 22 104 19 315 -6 413
-25 97 -67 185 -116 243 -50 58 -15 39 66 -36z"/>
<path d="M3604 2837 c-3 -8 -4 -52 -2 -98 l3 -84 87 0 c78 0 90 3 112 24 48
45 40 132 -13 161 -30 15 -180 13 -187 -3z"/>
</g>
</svg>
